<svg width="34" height="34" viewBox="0 0 34 34" fill="none" xmlns="http://www.w3.org/2000/svg">
<circle cx="17.1291" cy="16.9112" r="16.1796" fill="white"/>
<path fill-rule="evenodd" clip-rule="evenodd" d="M16.7199 12.7123C15.345 11.1101 13.0524 10.6791 11.3299 12.1463C9.60732 13.6134 9.36481 16.0664 10.7175 17.8016C11.8422 19.2442 15.246 22.287 16.3616 23.2718C16.4864 23.382 16.5488 23.4371 16.6216 23.4587C16.6851 23.4776 16.7546 23.4776 16.8182 23.4587C16.8909 23.4371 16.9533 23.382 17.0782 23.2718C18.1937 22.287 21.5975 19.2442 22.7222 17.8016C24.0749 16.0664 23.862 13.598 22.1099 12.1463C20.3577 10.6945 18.0947 11.1101 16.7199 12.7123Z" stroke="#3C4242" stroke-width="1.26066" stroke-linecap="round" stroke-linejoin="round"/>
</svg>
