<svg width="80" height="80" viewBox="0 0 80 80" fill="none" xmlns="http://www.w3.org/2000/svg">
<circle cx="39.6607" cy="39.6607" r="39.6607" fill="#37393F"/>
<path d="M38.6716 1.51307C48.3907 1.26106 57.8395 4.72822 65.0889 11.2067C72.3384 17.6852 76.8417 26.6864 77.6795 36.3726C78.5173 46.0588 75.6263 55.6996 69.5969 63.3266C63.5675 70.9536 54.8543 75.9916 45.2363 77.4122C35.6182 78.8327 25.8206 76.5285 17.8438 70.9701C9.86705 65.4117 4.31262 57.0183 2.31455 47.5034C0.316489 37.9886 2.02548 28.0698 7.09261 19.7723C12.1597 11.4748 20.2029 5.42417 29.5799 2.85583" stroke="#40DDB6" stroke-width="3" stroke-linecap="round" stroke-linejoin="round"/>
<path d="M23.9611 41.5605C24.0678 42.1472 24.3078 42.6005 24.6811 42.9205C25.0678 43.2272 25.5811 43.3805 26.2211 43.3805C27.0478 43.3805 27.6478 43.0405 28.0211 42.3605C28.3945 41.6672 28.5811 40.5072 28.5811 38.8805C28.2745 39.3072 27.8411 39.6405 27.2811 39.8805C26.7345 40.1205 26.1411 40.2405 25.5011 40.2405C24.6478 40.2405 23.8745 40.0672 23.1811 39.7205C22.5011 39.3605 21.9611 38.8339 21.5611 38.1405C21.1611 37.4339 20.9611 36.5805 20.9611 35.5805C20.9611 34.1005 21.4011 32.9272 22.2811 32.0605C23.1611 31.1805 24.3611 30.7405 25.8811 30.7405C27.7745 30.7405 29.1078 31.3472 29.8811 32.5605C30.6678 33.7739 31.0611 35.6005 31.0611 38.0405C31.0611 39.7739 30.9078 41.1939 30.6011 42.3005C30.3078 43.4072 29.7945 44.2472 29.0611 44.8205C28.3411 45.3939 27.3545 45.6805 26.1011 45.6805C25.1145 45.6805 24.2745 45.4939 23.5811 45.1205C22.8878 44.7339 22.3545 44.2339 21.9811 43.6205C21.6211 42.9939 21.4145 42.3072 21.3611 41.5605H23.9611ZM26.0811 37.9605C26.7745 37.9605 27.3211 37.7472 27.7211 37.3205C28.1211 36.8939 28.3211 36.3205 28.3211 35.6005C28.3211 34.8139 28.1078 34.2072 27.6811 33.7805C27.2678 33.3405 26.7011 33.1205 25.9811 33.1205C25.2611 33.1205 24.6878 33.3472 24.2611 33.8005C23.8478 34.2405 23.6411 34.8272 23.6411 35.5605C23.6411 36.2672 23.8411 36.8472 24.2411 37.3005C24.6545 37.7405 25.2678 37.9605 26.0811 37.9605ZM43.0407 33.5005H36.5607V36.9205C36.8407 36.5739 37.2407 36.2939 37.7607 36.0805C38.2807 35.8539 38.834 35.7405 39.4207 35.7405C40.4873 35.7405 41.3607 35.9739 42.0407 36.4405C42.7207 36.9072 43.214 37.5072 43.5207 38.2405C43.8273 38.9605 43.9807 39.7339 43.9807 40.5605C43.9807 42.0939 43.5407 43.3272 42.6607 44.2605C41.794 45.1939 40.554 45.6605 38.9407 45.6605C37.4207 45.6605 36.2073 45.2805 35.3007 44.5205C34.394 43.7605 33.8807 42.7672 33.7607 41.5405H36.4807C36.6007 42.0739 36.8673 42.5005 37.2807 42.8205C37.7073 43.1405 38.2473 43.3005 38.9007 43.3005C39.6873 43.3005 40.2807 43.0539 40.6807 42.5605C41.0807 42.0672 41.2807 41.4139 41.2807 40.6005C41.2807 39.7739 41.074 39.1472 40.6607 38.7205C40.2607 38.2805 39.6673 38.0605 38.8807 38.0605C38.3207 38.0605 37.854 38.2005 37.4807 38.4805C37.1073 38.7605 36.8407 39.1339 36.6807 39.6005H34.0007V31.0405H43.0407V33.5005ZM45.7918 34.6605C45.7918 33.6472 46.0851 32.8539 46.6718 32.2805C47.2718 31.7072 48.0384 31.4205 48.9718 31.4205C49.9051 31.4205 50.6651 31.7072 51.2518 32.2805C51.8518 32.8539 52.1518 33.6472 52.1518 34.6605C52.1518 35.6872 51.8518 36.4872 51.2518 37.0605C50.6651 37.6339 49.9051 37.9205 48.9718 37.9205C48.0384 37.9205 47.2718 37.6339 46.6718 37.0605C46.0851 36.4872 45.7918 35.6872 45.7918 34.6605ZM58.6318 31.6605L50.7718 45.6605H48.0518L55.8918 31.6605H58.6318ZM48.9518 33.1005C48.2184 33.1005 47.8518 33.6205 47.8518 34.6605C47.8518 35.7139 48.2184 36.2405 48.9518 36.2405C49.3118 36.2405 49.5918 36.1139 49.7918 35.8605C49.9918 35.5939 50.0918 35.1939 50.0918 34.6605C50.0918 33.6205 49.7118 33.1005 48.9518 33.1005ZM54.5718 42.6405C54.5718 41.6139 54.8651 40.8205 55.4518 40.2605C56.0518 39.6872 56.8184 39.4005 57.7518 39.4005C58.6851 39.4005 59.4384 39.6872 60.0118 40.2605C60.5984 40.8205 60.8918 41.6139 60.8918 42.6405C60.8918 43.6672 60.5984 44.4672 60.0118 45.0405C59.4384 45.6139 58.6851 45.9005 57.7518 45.9005C56.8051 45.9005 56.0384 45.6139 55.4518 45.0405C54.8651 44.4672 54.5718 43.6672 54.5718 42.6405ZM57.7318 41.0805C56.9718 41.0805 56.5918 41.6005 56.5918 42.6405C56.5918 43.6939 56.9718 44.2205 57.7318 44.2205C58.4784 44.2205 58.8518 43.6939 58.8518 42.6405C58.8518 41.6005 58.4784 41.0805 57.7318 41.0805Z" fill="white"/>
</svg>
