<svg width="80" height="80" viewBox="0 0 80 80" fill="none" xmlns="http://www.w3.org/2000/svg">
<circle cx="39.982" cy="39.6607" r="39.6607" fill="#37393F"/>
<path d="M40.3304 1.50183C49.4559 1.58516 58.2493 4.93597 65.1162 10.9466C71.983 16.9573 76.4684 25.2297 77.7591 34.2638C79.0498 43.298 77.0602 52.4955 72.1512 60.1885C67.2422 67.8815 59.7388 73.5606 51.0017 76.1959C42.2647 78.8312 32.8725 78.2482 24.5284 74.5526C16.1843 70.857 9.44092 64.2935 5.52102 56.0524C1.60112 47.8113 0.764323 38.4384 3.16238 29.6332C5.56043 20.8281 11.0345 13.1739 18.592 8.05861" stroke="#40DDB6" stroke-width="3" stroke-linecap="round" stroke-linejoin="round"/>
<path d="M23.4824 37.9405C22.1491 37.2472 21.4824 36.1739 21.4824 34.7205C21.4824 34.0005 21.6624 33.3472 22.0224 32.7605C22.3958 32.1605 22.9491 31.6872 23.6824 31.3405C24.4291 30.9805 25.3358 30.8005 26.4024 30.8005C27.4691 30.8005 28.3691 30.9805 29.1024 31.3405C29.8491 31.6872 30.4024 32.1605 30.7624 32.7605C31.1358 33.3472 31.3224 34.0005 31.3224 34.7205C31.3224 35.4539 31.1424 36.1005 30.7824 36.6605C30.4224 37.2072 29.9424 37.6339 29.3424 37.9405C30.0758 38.2605 30.6491 38.7272 31.0624 39.3405C31.4758 39.9539 31.6824 40.6805 31.6824 41.5205C31.6824 42.4272 31.4491 43.2205 30.9824 43.9005C30.5291 44.5672 29.9024 45.0805 29.1024 45.4405C28.3024 45.8005 27.4024 45.9805 26.4024 45.9805C25.4024 45.9805 24.5024 45.8005 23.7024 45.4405C22.9158 45.0805 22.2891 44.5672 21.8224 43.9005C21.3691 43.2205 21.1424 42.4272 21.1424 41.5205C21.1424 40.6805 21.3491 39.9539 21.7624 39.3405C22.1758 38.7139 22.7491 38.2472 23.4824 37.9405ZM28.6024 35.1205C28.6024 34.4672 28.4024 33.9605 28.0024 33.6005C27.6158 33.2405 27.0824 33.0605 26.4024 33.0605C25.7358 33.0605 25.2024 33.2405 24.8024 33.6005C24.4158 33.9605 24.2224 34.4739 24.2224 35.1405C24.2224 35.7405 24.4224 36.2205 24.8224 36.5805C25.2358 36.9405 25.7624 37.1205 26.4024 37.1205C27.0424 37.1205 27.5691 36.9405 27.9824 36.5805C28.3958 36.2072 28.6024 35.7205 28.6024 35.1205ZM26.4024 39.1605C25.6424 39.1605 25.0224 39.3539 24.5424 39.7405C24.0758 40.1272 23.8424 40.6805 23.8424 41.4005C23.8424 42.0672 24.0691 42.6139 24.5224 43.0405C24.9891 43.4539 25.6158 43.6605 26.4024 43.6605C27.1891 43.6605 27.8091 43.4472 28.2624 43.0205C28.7158 42.5939 28.9424 42.0539 28.9424 41.4005C28.9424 40.6939 28.7091 40.1472 28.2424 39.7605C27.7758 39.3605 27.1624 39.1605 26.4024 39.1605ZM43.694 33.5005H37.214V36.9205C37.494 36.5739 37.894 36.2939 38.414 36.0805C38.934 35.8539 39.4873 35.7405 40.074 35.7405C41.1407 35.7405 42.014 35.9739 42.694 36.4405C43.374 36.9072 43.8673 37.5072 44.174 38.2405C44.4807 38.9605 44.634 39.7339 44.634 40.5605C44.634 42.0939 44.194 43.3272 43.314 44.2605C42.4473 45.1939 41.2073 45.6605 39.594 45.6605C38.074 45.6605 36.8607 45.2805 35.954 44.5205C35.0473 43.7605 34.534 42.7672 34.414 41.5405H37.134C37.254 42.0739 37.5207 42.5005 37.934 42.8205C38.3607 43.1405 38.9007 43.3005 39.554 43.3005C40.3407 43.3005 40.934 43.0539 41.334 42.5605C41.734 42.0672 41.934 41.4139 41.934 40.6005C41.934 39.7739 41.7273 39.1472 41.314 38.7205C40.914 38.2805 40.3207 38.0605 39.534 38.0605C38.974 38.0605 38.5073 38.2005 38.134 38.4805C37.7607 38.7605 37.494 39.1339 37.334 39.6005H34.654V31.0405H43.694V33.5005ZM46.4451 34.6605C46.4451 33.6472 46.7384 32.8539 47.3251 32.2805C47.9251 31.7072 48.6917 31.4205 49.6251 31.4205C50.5584 31.4205 51.3184 31.7072 51.9051 32.2805C52.5051 32.8539 52.8051 33.6472 52.8051 34.6605C52.8051 35.6872 52.5051 36.4872 51.9051 37.0605C51.3184 37.6339 50.5584 37.9205 49.6251 37.9205C48.6917 37.9205 47.9251 37.6339 47.3251 37.0605C46.7384 36.4872 46.4451 35.6872 46.4451 34.6605ZM59.2851 31.6605L51.4251 45.6605H48.7051L56.5451 31.6605H59.2851ZM49.6051 33.1005C48.8717 33.1005 48.5051 33.6205 48.5051 34.6605C48.5051 35.7139 48.8717 36.2405 49.6051 36.2405C49.9651 36.2405 50.2451 36.1139 50.4451 35.8605C50.6451 35.5939 50.7451 35.1939 50.7451 34.6605C50.7451 33.6205 50.3651 33.1005 49.6051 33.1005ZM55.2251 42.6405C55.2251 41.6139 55.5184 40.8205 56.1051 40.2605C56.7051 39.6872 57.4717 39.4005 58.4051 39.4005C59.3384 39.4005 60.0917 39.6872 60.6651 40.2605C61.2517 40.8205 61.5451 41.6139 61.5451 42.6405C61.5451 43.6672 61.2517 44.4672 60.6651 45.0405C60.0917 45.6139 59.3384 45.9005 58.4051 45.9005C57.4584 45.9005 56.6917 45.6139 56.1051 45.0405C55.5184 44.4672 55.2251 43.6672 55.2251 42.6405ZM58.3851 41.0805C57.6251 41.0805 57.2451 41.6005 57.2451 42.6405C57.2451 43.6939 57.6251 44.2205 58.3851 44.2205C59.1317 44.2205 59.5051 43.6939 59.5051 42.6405C59.5051 41.6005 59.1317 41.0805 58.3851 41.0805Z" fill="white"/>
</svg>
