<svg width="23" height="20" viewBox="0 0 23 20" fill="none" xmlns="http://www.w3.org/2000/svg">
<path d="M7.5 5.40552C7.08579 5.40552 6.75 5.7413 6.75 6.15552C6.75 6.56973 7.08579 6.90552 7.5 6.90552V5.40552ZM15.5 6.90552C15.9142 6.90552 16.25 6.56973 16.25 6.15552C16.25 5.7413 15.9142 5.40552 15.5 5.40552V6.90552ZM7.5 9.40552C7.08579 9.40552 6.75 9.7413 6.75 10.1555C6.75 10.5697 7.08579 10.9055 7.5 10.9055V9.40552ZM11.5 10.9055C11.9142 10.9055 12.25 10.5697 12.25 10.1555C12.25 9.7413 11.9142 9.40552 11.5 9.40552V10.9055ZM21.282 14.0635L21.9503 14.404V14.404L21.282 14.0635ZM20.408 14.9375L20.7485 15.6058L20.408 14.9375ZM20.408 1.3735L20.7485 0.70525L20.7485 0.70525L20.408 1.3735ZM21.282 2.24754L21.9503 1.90704V1.90704L21.282 2.24754ZM2.59202 1.3735L2.93251 2.04176L2.93251 2.04176L2.59202 1.3735ZM1.71799 2.24754L2.38624 2.58803L2.38624 2.58803L1.71799 2.24754ZM2.70734 18.5416L3.14003 19.1542L3.14011 19.1542L2.70734 18.5416ZM6.66989 15.742L6.23712 15.1295H6.23712L6.66989 15.742ZM1.59027 18.6331L2.20486 18.2032H2.20486L1.59027 18.6331ZM2.60335 18.6038L2.2683 17.9328L2.26829 17.9328L2.60335 18.6038ZM1.92692 18.8411L1.8173 19.5831H1.8173L1.92692 18.8411ZM2.66983 18.5675L2.26547 17.9358L2.26536 17.9359L2.66983 18.5675ZM2.64376 18.5831L2.2785 17.928L2.27845 17.9281L2.64376 18.5831ZM7.76828 15.1895L7.90589 15.9267L7.90589 15.9267L7.76828 15.1895ZM7.30048 15.3381L7.61351 16.0196L7.61352 16.0196L7.30048 15.3381ZM7.5 6.90552H15.5V5.40552H7.5V6.90552ZM7.5 10.9055H11.5V9.40552H7.5V10.9055ZM4.7 1.90552H18.3V0.405518H4.7V1.90552ZM20.75 4.35552V11.9555H22.25V4.35552H20.75ZM20.75 11.9555C20.75 12.5279 20.7494 12.9122 20.7252 13.208C20.7018 13.4952 20.6599 13.6324 20.6138 13.723L21.9503 14.404C22.1221 14.0667 22.1892 13.7101 22.2203 13.3302C22.2506 12.9591 22.25 12.5032 22.25 11.9555H20.75ZM18.3 15.9055C18.8477 15.9055 19.3035 15.9061 19.6747 15.8758C20.0546 15.8447 20.4112 15.7776 20.7485 15.6058L20.0675 14.2693C19.9769 14.3154 19.8396 14.3573 19.5525 14.3808C19.2566 14.4049 18.8724 14.4055 18.3 14.4055V15.9055ZM20.6138 13.723C20.4939 13.9582 20.3027 14.1494 20.0675 14.2693L20.7485 15.6058C21.2659 15.3421 21.6866 14.9214 21.9503 14.404L20.6138 13.723ZM18.3 1.90552C18.8724 1.90552 19.2566 1.9061 19.5525 1.93028C19.8396 1.95373 19.9769 1.99562 20.0675 2.04176L20.7485 0.70525C20.4112 0.533406 20.0546 0.466295 19.6747 0.435257C19.3035 0.404934 18.8477 0.405518 18.3 0.405518V1.90552ZM22.25 4.35552C22.25 3.80784 22.2506 3.35198 22.2203 2.98085C22.1892 2.60096 22.1221 2.24431 21.9503 1.90704L20.6138 2.58803C20.6599 2.67859 20.7018 2.81587 20.7252 3.103C20.7494 3.39887 20.75 3.78309 20.75 4.35552H22.25ZM20.0675 2.04176C20.3027 2.1616 20.4939 2.35283 20.6138 2.58803L21.9503 1.90704C21.6866 1.3896 21.2659 0.968902 20.7485 0.70525L20.0675 2.04176ZM4.7 0.405518C4.15232 0.405518 3.69646 0.404934 3.32533 0.435257C2.94544 0.466295 2.58879 0.533406 2.25153 0.70525L2.93251 2.04176C3.02307 1.99562 3.16035 1.95373 3.44748 1.93028C3.74336 1.9061 4.12757 1.90552 4.7 1.90552V0.405518ZM2.25 4.35552C2.25 3.78309 2.25058 3.39887 2.27476 3.103C2.29822 2.81587 2.3401 2.67859 2.38624 2.58803L1.04973 1.90704C0.877888 2.24431 0.810777 2.60096 0.779739 2.98085C0.749417 3.35198 0.75 3.80784 0.75 4.35552H2.25ZM2.25153 0.70525C1.73408 0.968902 1.31338 1.3896 1.04973 1.90704L2.38624 2.58803C2.50608 2.35283 2.69731 2.1616 2.93251 2.04176L2.25153 0.70525ZM18.3 14.4055H8.51639V15.9055H18.3V14.4055ZM3.14011 19.1542L7.10267 16.3545L6.23712 15.1295L2.27457 17.9291L3.14011 19.1542ZM0.75 17.8611C0.75 18.0608 0.749252 18.2622 0.764406 18.4278C0.77946 18.5923 0.817386 18.8366 0.97568 19.0629L2.20486 18.2032C2.27289 18.3005 2.26568 18.3731 2.25816 18.291C2.25499 18.2564 2.25258 18.2065 2.2513 18.1315C2.25002 18.0569 2.25 17.9701 2.25 17.8611H0.75ZM2.26829 17.9328C2.18118 17.9763 2.11175 18.0107 2.0523 18.0387C1.99244 18.0669 1.9529 18.0838 1.92597 18.0939C1.86294 18.1177 1.92374 18.0825 2.03654 18.0992L1.8173 19.5831C2.07835 19.6216 2.30366 19.5546 2.45491 19.4976C2.6054 19.4409 2.77432 19.3568 2.93841 19.2748L2.26829 17.9328ZM0.975679 19.0629C1.17274 19.3447 1.47716 19.5328 1.8173 19.5831L2.03654 18.0992C2.10457 18.1092 2.16545 18.1469 2.20486 18.2032L0.975679 19.0629ZM2.25 17.8611V4.35552H0.75V17.8611H2.25ZM2.27465 17.929C2.26983 17.9324 2.26637 17.9349 2.26338 17.937C2.26043 17.939 2.25887 17.9401 2.25804 17.9407C2.25672 17.9416 2.26002 17.9393 2.26547 17.9358L3.0742 19.1991C3.10147 19.1817 3.12688 19.1635 3.14003 19.1542L2.27465 17.929ZM2.9384 19.2748C2.95307 19.2675 2.9808 19.2539 3.00907 19.2381L2.27845 17.9281C2.28396 17.925 2.28751 17.9232 2.28623 17.9238C2.28538 17.9243 2.28372 17.9251 2.28053 17.9267C2.27732 17.9283 2.27354 17.9302 2.2683 17.9328L2.9384 19.2748ZM2.26536 17.9359C2.26971 17.9331 2.27403 17.9305 2.2785 17.928L3.00902 19.2381C3.03112 19.2258 3.05295 19.2127 3.0743 19.1991L2.26536 17.9359ZM8.51639 14.4055C8.16604 14.4055 7.8965 14.4026 7.63067 14.4522L7.90589 15.9267C8.00388 15.9084 8.1118 15.9055 8.51639 15.9055V14.4055ZM7.10266 16.3545C7.4331 16.1211 7.52294 16.0612 7.61351 16.0196L6.98745 14.6565C6.7417 14.7694 6.52325 14.9273 6.23712 15.1295L7.10266 16.3545ZM7.63067 14.4522C7.40869 14.4936 7.19265 14.5623 6.98745 14.6565L7.61352 16.0196C7.70679 15.9768 7.80499 15.9456 7.90589 15.9267L7.63067 14.4522Z" fill="#807D7E"/>
</svg>
