<svg width="38" height="38" viewBox="0 0 38 38" fill="none" xmlns="http://www.w3.org/2000/svg">
<rect x="0.975998" y="0.000244141" width="37.024" height="37.024" rx="10.68" fill="#F6F6F6"/>
<path d="M15.8389 15.2443V24.2722H13.4276V15.2443H15.8389ZM13.2774 12.8913C13.2774 12.5409 13.3998 12.2517 13.6445 12.0236C13.8893 11.7955 14.2175 11.6815 14.6291 11.6815C15.0351 11.6815 15.3605 11.7955 15.6053 12.0236C15.8556 12.2517 15.9808 12.5409 15.9808 12.8913C15.9808 13.2418 15.8556 13.531 15.6053 13.7591C15.3605 13.9872 15.0351 14.1012 14.6291 14.1012C14.2175 14.1012 13.8893 13.9872 13.6445 13.7591C13.3998 13.531 13.2774 13.2418 13.2774 12.8913ZM20.5194 17.1717V24.2722H18.1164V15.2443H20.3692L20.5194 17.1717ZM20.169 19.4412H19.5182C19.5182 18.7737 19.6044 18.1729 19.7768 17.6389C19.9493 17.0994 20.1912 16.6405 20.5027 16.2622C20.8142 15.8784 21.1841 15.5864 21.6125 15.3861C22.0463 15.1803 22.5303 15.0774 23.0643 15.0774C23.487 15.0774 23.8736 15.1386 24.2241 15.261C24.5745 15.3833 24.8749 15.578 25.1252 15.845C25.3811 16.112 25.5757 16.4652 25.7092 16.9047C25.8483 17.3441 25.9178 17.8809 25.9178 18.515V24.2722H23.4981V18.5067C23.4981 18.1062 23.4425 17.7947 23.3313 17.5722C23.22 17.3497 23.0559 17.1939 22.839 17.1049C22.6276 17.0104 22.3662 16.9631 22.0547 16.9631C21.7321 16.9631 21.4511 17.0271 21.212 17.155C20.9783 17.2829 20.7836 17.4609 20.6279 17.689C20.4777 17.9115 20.3637 18.1729 20.2858 18.4733C20.2079 18.7737 20.169 19.0963 20.169 19.4412Z" fill="#2A2F2F"/>
</svg>
