<svg width="20" height="20" viewBox="0 0 20 20" fill="none" xmlns="http://www.w3.org/2000/svg">
<rect width="20" height="20" rx="4" fill="#8A33FD"/>
<path d="M5.6066 13.22L7.0366 11.96C7.8766 11.24 9.1066 10.21 9.1066 9.34C9.1066 8.71 8.6466 8.3 7.8166 8.3C7.1066 8.3 6.5566 8.72 6.4166 9.18L5.5666 8.8C5.7666 8.16 6.5766 7.41 7.8166 7.41C9.1966 7.41 10.0766 8.13 10.0766 9.29C10.0766 10.53 8.7566 11.63 8.1066 12.21L7.0566 13.14H10.0666V14H5.6066V13.22ZM13.0314 7.5V14H12.0914V8.36H10.6314V7.5H13.0314Z" fill="white"/>
</svg>
