<svg width="20" height="20" viewBox="0 0 20 20" fill="none" xmlns="http://www.w3.org/2000/svg">
<path d="M16.6363 17.697C16.9292 17.9899 17.404 17.9899 17.6969 17.697C17.9898 17.4041 17.9898 16.9292 17.6969 16.6363L16.6363 17.697ZM13.9166 8.83334C13.9166 11.6408 11.6407 13.9167 8.83327 13.9167V15.4167C12.4691 15.4167 15.4166 12.4692 15.4166 8.83334H13.9166ZM8.83327 13.9167C6.02583 13.9167 3.74994 11.6408 3.74994 8.83334H2.24994C2.24994 12.4692 5.1974 15.4167 8.83327 15.4167V13.9167ZM3.74994 8.83334C3.74994 6.02589 6.02583 3.75 8.83327 3.75V2.25C5.1974 2.25 2.24994 5.19746 2.24994 8.83334H3.74994ZM8.83327 3.75C11.6407 3.75 13.9166 6.02589 13.9166 8.83334H15.4166C15.4166 5.19746 12.4691 2.25 8.83327 2.25V3.75ZM12.4696 13.5303L16.6363 17.697L17.6969 16.6363L13.5303 12.4697L12.4696 13.5303Z" fill="#807D7E"/>
</svg>
