<svg width="42" height="42" viewBox="0 0 42 42" fill="none" xmlns="http://www.w3.org/2000/svg">
<rect x="0.75" y="0.75" width="36.5" height="36.5" rx="11.25" stroke="#BEBCBD" stroke-width="1.5"/>
<path d="M18.6555 14.9L15.5335 19.45L18.6555 24H17.1295L14.7775 20.556L12.4115 24H10.8855L14.0075 19.45L10.8855 14.9H12.4115L14.7775 18.344L17.1295 14.9H18.6555ZM19.3653 22.026L20.4293 21.298C20.7373 22.026 21.8573 22.852 23.2993 22.852C24.6993 22.852 25.2453 22.32 25.2453 21.438C25.2453 20.388 23.5793 20.122 22.8093 19.884C21.9833 19.646 19.7013 19.24 19.7013 17.336C19.7013 15.544 21.2413 14.732 23.1593 14.732C24.8673 14.732 26.2393 15.614 26.5893 16.594L25.5253 17.252C25.2733 16.65 24.2793 16.048 23.0193 16.048C21.8293 16.048 21.1853 16.496 21.1853 17.266C21.1853 18.26 22.7253 18.498 23.5653 18.736C24.3213 18.974 26.7013 19.478 26.7013 21.382C26.7013 23.202 25.3433 24.168 23.1593 24.168C21.1573 24.168 19.8133 23.174 19.3653 22.026Z" fill="#3C4242"/>
</svg>
