<svg width="42" height="42" viewBox="0 0 42 42" fill="none" xmlns="http://www.w3.org/2000/svg">
<rect x="0.75" y="0.75" width="36.5" height="36.5" rx="11.25" stroke="#BEBCBD" stroke-width="1.5"/>
<path d="M15.1954 22.026L16.2594 21.298C16.5674 22.026 17.6874 22.852 19.1294 22.852C20.5294 22.852 21.0754 22.32 21.0754 21.438C21.0754 20.388 19.4094 20.122 18.6394 19.884C17.8134 19.646 15.5314 19.24 15.5314 17.336C15.5314 15.544 17.0714 14.732 18.9894 14.732C20.6974 14.732 22.0694 15.614 22.4194 16.594L21.3554 17.252C21.1034 16.65 20.1094 16.048 18.8494 16.048C17.6594 16.048 17.0154 16.496 17.0154 17.266C17.0154 18.26 18.5554 18.498 19.3954 18.736C20.1514 18.974 22.5314 19.478 22.5314 21.382C22.5314 23.202 21.1734 24.168 18.9894 24.168C16.9874 24.168 15.6434 23.174 15.1954 22.026Z" fill="#3C4242"/>
</svg>
